<svg width="24" height="24" viewBox="0 0 24 24" fill="none" xmlns="http://www.w3.org/2000/svg">
<path fill-rule="evenodd" clip-rule="evenodd" d="M6.8226 4.22475C6.8226 5.46147 5.89169 6.45104 4.39696 6.45104H4.36956C2.9304 6.45104 2 5.46147 2 4.22475C2 2.96188 2.95873 2 4.42521 2C5.89169 2 6.79477 2.96188 6.8226 4.22475ZM6.54025 8.20898V21.089H2.25348V8.20898H6.54025ZM21.9998 21.0892L22 13.7042C22 9.748 19.8852 7.90674 17.0643 7.90674C14.7883 7.90674 13.7693 9.15687 13.2004 10.0339V8.20953H8.91309C8.96959 9.41812 8.91309 21.0895 8.91309 21.0895H13.2004V13.8963C13.2004 13.5113 13.2282 13.1273 13.3415 12.8517C13.6514 12.0827 14.3568 11.2865 15.5411 11.2865C17.0929 11.2865 17.7132 12.4675 17.7132 14.1984V21.0892H21.9998Z" fill="white"/>
</svg>
