<svg width="24" height="24" viewBox="0 0 24 24" fill="none" xmlns="http://www.w3.org/2000/svg">
<path d="M11.5761 7.78828L11.6233 8.56683L10.8364 8.4715C7.97206 8.10606 5.46967 6.86673 3.345 4.7853L2.30628 3.75253L2.03873 4.51519C1.47215 6.21529 1.83413 8.01072 3.0145 9.21827C3.64403 9.8856 3.50239 9.98093 2.41645 9.58371C2.03873 9.4566 1.70822 9.36127 1.67675 9.40894C1.56658 9.52016 1.9443 10.966 2.24332 11.538C2.65252 12.3325 3.48665 13.111 4.39947 13.5718L5.17065 13.9372L4.25782 13.9531C3.37648 13.9531 3.345 13.969 3.43943 14.3027C3.7542 15.3355 4.99752 16.4318 6.38249 16.9084L7.35827 17.2421L6.5084 17.7506C5.24934 18.4814 3.76994 18.8945 2.29054 18.9263C1.58232 18.9422 1 19.0058 1 19.0534C1 19.2123 2.92007 20.1021 4.03749 20.4516C7.38974 21.4844 11.3715 21.0395 14.3618 19.2759C16.4865 18.0207 18.6111 15.5261 19.6027 13.111C20.1378 11.824 20.6729 9.47249 20.6729 8.34439C20.6729 7.6135 20.7201 7.51817 21.6014 6.64429C22.1208 6.13585 22.6087 5.57974 22.7031 5.42085C22.8605 5.11896 22.8447 5.11896 22.0421 5.38907C20.7043 5.86574 20.5155 5.80218 21.1765 5.08719C21.6644 4.57875 22.2467 3.6572 22.2467 3.38709C22.2467 3.33942 22.0106 3.41886 21.7431 3.56186C21.4598 3.72075 20.8302 3.95908 20.3581 4.10208L19.5082 4.37219L18.737 3.84786C18.3121 3.56186 17.7141 3.24409 17.3993 3.14875C16.5966 2.92631 15.3691 2.95809 14.6451 3.21231C12.6778 3.92731 11.4345 5.77041 11.5761 7.78828Z" fill="white"/>
</svg>
